<svg width="30" height="27" viewBox="0 0 30 27" fill="none" xmlns="http://www.w3.org/2000/svg">
<path d="M28.125 1.69025C28.125 1.01005 27.668 0.393127 26.9648 0.129484C26.2617 -0.134159 25.459 0.0134811 24.9199 0.493312L22.3652 2.79755C19.5527 5.32853 15.7383 6.7522 11.7598 6.7522H11.25H9.375H3.75C1.68164 6.7522 0 8.26551 0 10.1268V15.1888C0 17.0501 1.68164 18.5634 3.75 18.5634V25.3127C3.75 26.246 4.58789 27 5.625 27H9.375C10.4121 27 11.25 26.246 11.25 25.3127V18.5634H11.7598C15.7383 18.5634 19.5527 19.9871 22.3652 22.5181L24.9199 24.817C25.459 25.3021 26.2617 25.4445 26.9648 25.1809C27.668 24.9172 28.125 24.3056 28.125 23.6201V15.8426C29.2148 15.3786 30 14.1289 30 12.6578C30 11.1867 29.2148 9.93701 28.125 9.473V1.69025ZM24.375 5.73454V12.6578V19.5811C20.9297 16.7601 16.4355 15.1888 11.7598 15.1888H11.25V10.1268H11.7598C16.4355 10.1268 20.9297 8.55552 24.375 5.73454Z" fill="white"/>
</svg>
