<svg width="21" height="22" viewBox="0 0 21 22" fill="none" xmlns="http://www.w3.org/2000/svg">
<g clip-path="url(#clip0_295_1415)">
<path d="M15.7498 11C15.7498 11.483 15.3578 11.875 14.8748 11.875C14.3918 11.875 13.9998 11.483 13.9998 11C13.9998 10.517 14.3918 10.125 14.8748 10.125C15.3578 10.125 15.7498 10.517 15.7498 11ZM6.1248 4.875C6.6078 4.875 6.9998 4.48388 6.9998 4C6.9998 3.03487 7.78467 2.25 8.7498 2.25C9.71492 2.25 10.4998 3.03487 10.4998 4C10.4998 4.48388 10.8918 4.875 11.3748 4.875C11.8578 4.875 12.2498 4.48388 12.2498 4C12.2498 2.06975 10.68 0.5 8.7498 0.5C6.81955 0.5 5.2498 2.06975 5.2498 4C5.2498 4.48388 5.6418 4.875 6.1248 4.875ZM20.9998 11.875V13.625C20.9998 14.5927 20.3453 15.1816 19.6278 15.3348C19.0494 16.782 17.9898 18.0044 16.6248 18.7945V18.875C16.6248 20.3223 15.447 21.5 13.9998 21.5C12.8588 21.5 11.8858 20.7685 11.5244 19.75H9.4743C9.11292 20.7685 8.13992 21.5 6.99892 21.5C5.55167 21.5 4.37392 20.3223 4.37392 18.875V18.8059C2.0683 17.4767 0.714672 14.976 0.888797 12.2863C0.943922 11.4305 1.16005 10.6176 1.50567 9.87475C0.615797 9.45387 -0.00195312 8.54825 -0.00195312 7.5C-0.00195312 6.05275 1.1758 4.875 2.62305 4.875C3.10605 4.875 3.49805 5.26613 3.49805 5.75C3.49805 6.23387 3.10605 6.625 2.62305 6.625C2.14005 6.625 1.74805 7.017 1.74805 7.5C1.74805 7.92963 2.05955 8.2875 2.46817 8.361C3.79905 6.76588 5.83955 5.75 8.1058 5.75H12.7984C13.4398 4.45675 14.6377 3.552 16.2345 3.17225C16.7517 3.05062 17.2872 3.16963 17.7054 3.4995C18.1298 3.8355 18.3739 4.33775 18.3739 4.8785V8.12912C18.9059 8.73375 19.3312 9.425 19.6269 10.1652C20.3453 10.3184 20.9998 10.9073 20.9998 11.875ZM19.2498 11.875H18.9925C18.6058 11.875 18.2645 11.6204 18.1543 11.2494C17.9145 10.4444 17.4718 9.69537 16.8742 9.082C16.714 8.91838 16.6248 8.69875 16.6248 8.47125V4.8785C15.7717 5.0815 14.6429 5.60475 14.2063 6.92163C14.0829 7.29175 13.7224 7.54637 13.34 7.52012C13.2805 7.5175 8.10755 7.50088 8.10755 7.50088C5.21742 7.50088 2.8138 9.6525 2.63617 12.4C2.49617 14.5604 3.66955 16.558 5.62605 17.4881C5.93142 17.6334 6.1248 17.9414 6.1248 18.2783V18.8759C6.1248 19.3589 6.51767 19.7509 6.9998 19.7509C7.48192 19.7509 7.8748 19.3589 7.8748 18.8759C7.8748 18.3929 8.2668 18.0009 8.7498 18.0009H12.2498C12.7328 18.0009 13.1248 18.392 13.1248 18.8759C13.1248 19.3597 13.5177 19.7509 13.9998 19.7509C14.4819 19.7509 14.8748 19.3589 14.8748 18.8759V18.2686C14.8748 17.9317 15.0682 17.6246 15.3727 17.4794C16.7219 16.8354 17.7352 15.6585 18.1543 14.2524C18.2645 13.8814 18.6058 13.6267 18.9925 13.6267H19.2498V11.8767V11.875Z" fill="white"/>
</g>
<defs>
<clipPath id="clip0_295_1415">
<rect width="21" height="21" fill="white" transform="translate(0 0.5)"/>
</clipPath>
</defs>
</svg>
