<svg width="36" height="36" viewBox="0 0 36 36" fill="none" xmlns="http://www.w3.org/2000/svg">
<circle cx="18" cy="18" r="18" fill="#F8F8FF"/>
<path d="M24.75 12H22.425C22.0662 10.2552 20.5313 9.00225 18.75 9H17.25C15.4686 9.00225 13.9338 10.2552 13.575 12H11.25C10.8358 12 10.5 12.3358 10.5 12.75C10.5 13.1642 10.8358 13.5 11.25 13.5H12V23.25C12.0025 25.32 13.68 26.9975 15.75 27H20.25C22.32 26.9975 23.9975 25.32 24 23.25V13.5H24.75C25.1642 13.5 25.5 13.1642 25.5 12.75C25.5 12.3358 25.1642 12 24.75 12ZM17.25 21.75C17.25 22.1642 16.9142 22.5 16.5 22.5C16.0858 22.5 15.75 22.1642 15.75 21.75V17.25C15.75 16.8358 16.0858 16.5 16.5 16.5C16.9142 16.5 17.25 16.8358 17.25 17.25V21.75H17.25ZM20.25 21.75C20.25 22.1642 19.9142 22.5 19.5 22.5C19.0858 22.5 18.75 22.1642 18.75 21.75V17.25C18.75 16.8358 19.0858 16.5 19.5 16.5C19.9142 16.5 20.25 16.8358 20.25 17.25V21.75ZM15.1283 12C15.4473 11.1017 16.2968 10.5011 17.25 10.5H18.75C19.7032 10.5011 20.5528 11.1017 20.8718 12H15.1283Z" fill="#222222"/>
</svg>
