<svg width="18" height="18" viewBox="0 0 18 18" fill="none" xmlns="http://www.w3.org/2000/svg">
<g clip-path="url(#clip0_487_706)">
<path d="M0.879 14.3392C0.316352 14.9017 0.000169912 15.6646 0 16.4602L0 18H1.53975C2.33533 17.9998 3.09827 17.6836 3.66075 17.121L13.668 7.11372L10.8863 4.33197L0.879 14.3392Z" fill="#222222"/>
<path d="M17.3593 0.641275C17.1766 0.458451 16.9598 0.313416 16.721 0.214462C16.4823 0.115508 16.2264 0.0645752 15.968 0.0645752C15.7096 0.0645752 15.4537 0.115508 15.215 0.214462C14.9763 0.313416 14.7594 0.458451 14.5768 0.641275L11.9473 3.27152L14.729 6.05327L17.3593 3.42377C17.5421 3.24114 17.6871 3.02427 17.7861 2.78554C17.885 2.54682 17.936 2.29094 17.936 2.03252C17.936 1.77411 17.885 1.51822 17.7861 1.2795C17.6871 1.04078 17.5421 0.823908 17.3593 0.641275Z" fill="#222222"/>
</g>
<defs>
<clipPath id="clip0_487_706">
<rect width="18" height="18" fill="white"/>
</clipPath>
</defs>
</svg>
