<svg width="21" height="22" viewBox="0 0 21 22" fill="none" xmlns="http://www.w3.org/2000/svg">
<g clip-path="url(#clip0_295_1411)">
<path d="M16.625 4H15.6625C15.26 2.005 13.4925 0.5 11.375 0.5H9.625C7.51625 0.5 5.74875 2.005 5.3375 4H4.375C1.96 4 0 5.96 0 8.375V17.125C0 19.54 1.96 21.5 4.375 21.5H16.625C19.04 21.5 21 19.54 21 17.125V8.375C21 5.96 19.04 4 16.625 4ZM9.625 2.25H11.375C12.5125 2.25 13.4925 2.985 13.8512 4H7.14875C7.5075 2.985 8.47875 2.25 9.625 2.25ZM19.25 17.125C19.25 18.5688 18.0688 19.75 16.625 19.75H4.375C2.93125 19.75 1.75 18.5688 1.75 17.125V8.375C1.75 6.93125 2.93125 5.75 4.375 5.75H16.625C18.0688 5.75 19.25 6.93125 19.25 8.375V17.125Z" fill="white"/>
</g>
<defs>
<clipPath id="clip0_295_1411">
<rect width="21" height="21" fill="white" transform="translate(0 0.5)"/>
</clipPath>
</defs>
</svg>
