<svg width="30" height="34" viewBox="0 0 30 34" fill="none" xmlns="http://www.w3.org/2000/svg">
<path d="M8.57143 0C9.7567 0 10.7143 0.93457 10.7143 2.09135V4.18269H19.2857V2.09135C19.2857 0.93457 20.2433 0 21.4286 0C22.6138 0 23.5714 0.93457 23.5714 2.09135V4.18269H26.7857C28.5603 4.18269 30 5.58782 30 7.31971V10.4567H0V7.31971C0 5.58782 1.43973 4.18269 3.21429 4.18269H6.42857V2.09135C6.42857 0.93457 7.38616 0 8.57143 0ZM0 12.5481H30V30.3245C30 32.0564 28.5603 33.4615 26.7857 33.4615H3.21429C1.43973 33.4615 0 32.0564 0 30.3245V12.5481ZM22.0312 19.9331C22.6607 19.3188 22.6607 18.3254 22.0312 17.7176C21.4018 17.1098 20.3839 17.1033 19.7612 17.7176L13.3996 23.9263L10.2522 20.8546C9.62277 20.2403 8.60491 20.2403 7.98214 20.8546C7.35937 21.469 7.35268 22.4624 7.98214 23.0702L12.2679 27.2529C12.8973 27.8672 13.9152 27.8672 14.5379 27.2529L22.0312 19.9331Z" fill="white"/>
</svg>
