<svg width="21" height="22" viewBox="0 0 21 22" fill="none" xmlns="http://www.w3.org/2000/svg">
<g clip-path="url(#clip0_295_1419)">
<path d="M0.875005 14.9375C0.875005 13.7291 1.85413 12.75 3.0625 12.75C4.27088 12.75 5.25 13.7291 5.25 14.9375C5.25 16.1459 4.27088 17.125 3.0625 17.125C1.85413 17.125 0.875005 16.1459 0.875005 14.9375ZM3.0625 18C1.5925 18 0.311505 19.029 0.0183797 20.4474C-0.0796203 20.9207 0.224005 21.3836 0.69738 21.4816C1.16725 21.577 1.63363 21.276 1.73163 20.8026C1.8585 20.1927 2.41763 19.75 3.0625 19.75C3.70738 19.75 4.2665 20.1927 4.39338 20.8026C4.47913 21.2165 4.84313 21.5 5.24913 21.5C5.30775 21.5 5.36725 21.4939 5.42763 21.4816C5.901 21.3836 6.2055 20.9207 6.10663 20.4474C5.8135 19.029 4.5325 18 3.0625 18ZM17.5 12.75H9.625C8.65988 12.75 7.875 11.9651 7.875 11C7.875 10.0349 8.65988 9.25 9.625 9.25H10.5C10.983 9.25 11.375 8.858 11.375 8.375C11.375 7.892 10.983 7.5 10.5 7.5H9.625C7.69476 7.5 6.125 9.06975 6.125 11C6.125 12.9302 7.69476 14.5 9.625 14.5H17.5C18.4651 14.5 19.25 15.2849 19.25 16.25C19.25 17.2151 18.4651 18 17.5 18H8.75C8.267 18 7.875 18.392 7.875 18.875C7.875 19.358 8.267 19.75 8.75 19.75H17.5C19.4303 19.75 21 18.1802 21 16.25C21 14.3197 19.4303 12.75 17.5 12.75ZM13.5651 6.96537L12.8109 9.38475C12.7094 9.70937 12.8223 10.0637 13.0953 10.2676C13.237 10.3744 13.4068 10.4277 13.5765 10.4277C13.7323 10.4277 13.8871 10.3831 14.0228 10.2921L16.1945 8.83875L18.403 10.2772C18.6883 10.4627 19.0601 10.4479 19.3305 10.2405C19.6009 10.0322 19.7094 9.67612 19.6026 9.35325L18.8178 6.96275L20.7156 5.41662C20.9729 5.19962 21.0683 4.84437 20.9528 4.52762C20.8373 4.21087 20.5363 4.00087 20.1994 4.00087H17.7923L16.94 1.61037C16.8236 1.29625 16.5235 1.088 16.1884 1.088C15.8533 1.088 15.5531 1.29625 15.4368 1.61037L14.5845 4.00087H12.1774C11.8414 4.00087 11.5404 4.21087 11.4249 4.52675C11.3085 4.84262 11.4021 5.197 11.6585 5.41487L13.5651 6.96537Z" fill="white"/>
</g>
<defs>
<clipPath id="clip0_295_1419">
<rect width="21" height="21" fill="white" transform="translate(0 0.5)"/>
</clipPath>
</defs>
</svg>
