<svg width="43" height="43" viewBox="0 0 43 43" fill="none" xmlns="http://www.w3.org/2000/svg">
<path d="M21.5 0C33.3745 0 43 9.62546 43 21.5C43 33.3745 33.3745 43 21.5 43C9.62546 43 0 33.3745 0 21.5C0 9.62546 9.62546 0 21.5 0ZM28.9166 30.2636C29.312 29.0502 31.1647 16.9579 31.3937 14.5751C31.4629 13.8535 31.2348 13.3739 30.788 13.1599C30.2477 12.9 29.4475 13.0299 28.5193 13.3646C27.2461 13.8236 10.9697 20.7344 10.0293 21.1345C9.1375 21.5131 8.29433 21.9263 8.29433 22.5245C8.29433 22.9452 8.54391 23.1817 9.23191 23.4275C9.94796 23.6827 11.7512 24.2296 12.8159 24.5231C13.8413 24.8063 15.0089 24.5605 15.6632 24.1538C16.3568 23.7229 24.3614 18.3666 24.9363 17.8973C25.5102 17.4281 25.9683 18.0292 25.499 18.4993C25.0297 18.9686 19.5351 24.3015 18.8106 25.04C17.931 25.9365 18.5554 26.8657 19.1453 27.2377C19.8193 27.6621 24.6661 30.9133 25.3962 31.4349C26.1262 31.9565 26.8666 32.193 27.5443 32.193C28.222 32.193 28.5791 31.3003 28.9166 30.2636Z" fill="#FFC7C2"/>
</svg>
