<svg width="22" height="21" viewBox="0 0 22 21" fill="none" xmlns="http://www.w3.org/2000/svg">
<path d="M3.05073 10.332C8.54923 7.91304 15.6647 4.96386 16.6469 4.55567C19.2234 3.48729 20.0139 3.69204 19.6197 6.05804C19.3367 7.75861 18.5199 13.3888 17.8689 16.8932C17.4825 18.9713 16.6159 19.2176 15.253 18.3185C14.5977 17.8859 11.2897 15.6984 10.5718 15.1847C9.91641 14.7166 9.01254 14.1535 10.1461 13.0445C10.5495 12.6494 13.1937 10.1246 15.2539 8.15936C15.5239 7.90123 15.1848 7.47729 14.8733 7.68423C12.0965 9.52567 8.24648 12.0815 7.75648 12.4145C7.01623 12.9172 6.30529 13.1477 5.0291 12.7811C4.06485 12.5042 3.12291 12.1739 2.75629 12.0479C1.34448 11.5631 1.6796 10.9353 3.05073 10.332Z" fill="#3D3BFF"/>
</svg>
