<svg width="20" height="16" viewBox="0 0 20 16" fill="none" xmlns="http://www.w3.org/2000/svg">
<path fill-rule="evenodd" clip-rule="evenodd" d="M18.2496 1.22696C18.0686 3.10945 16.6049 12.663 16.2925 13.6216C16.0259 14.4406 15.7438 15.1459 15.2084 15.1459C14.6729 15.1459 14.088 14.959 13.5112 14.5469C12.9345 14.1348 9.10522 11.5663 8.57275 11.231C8.10674 10.937 7.61341 10.2029 8.30836 9.4947C8.66421 9.13196 10.4769 7.36606 11.8864 5.99293C12.7439 5.15753 13.4522 4.4675 13.5925 4.32727C13.9632 3.95579 13.6013 3.48093 13.1479 3.85166C12.6937 4.2224 6.36974 8.45413 5.82176 8.79458C5.30479 9.11584 4.38238 9.31007 3.57223 9.0863C2.73105 8.8544 1.30644 8.42237 0.740737 8.22075C0.197185 8.02652 0 7.83968 0 7.50734C0 7.03469 0.666146 6.70826 1.37069 6.40916C2.11365 6.09307 14.9728 0.633189 15.9786 0.270576C16.712 0.0061852 17.3442 -0.0964707 17.771 0.108838C18.124 0.277959 18.3042 0.65682 18.2496 1.22696Z" fill="white"/>
</svg>
