<svg width="43" height="43" viewBox="0 0 43 43" fill="none" xmlns="http://www.w3.org/2000/svg">
<path d="M21.5 0C9.64509 0 0 9.64509 0 21.5C0 33.3549 9.64509 43 21.5 43C33.3558 43 43 33.3549 43 21.5C43 9.64509 33.3558 0 21.5 0ZM30.8226 25.7392C32.9137 27.5957 33.3484 28.2585 33.4194 28.3716C34.286 29.7457 32.4585 29.913 32.4585 29.913H28.6072C28.6072 29.913 27.6696 29.9233 26.8685 29.3924C25.5626 28.537 24.195 26.8787 23.234 27.1667C22.4273 27.4078 22.4348 28.4978 22.4348 29.4298C22.4348 29.7635 22.1478 29.913 21.5 29.913C20.8522 29.913 20.583 29.913 20.296 29.913C18.1862 29.913 15.8969 29.2026 13.6132 26.8161C10.3826 23.4425 7.5493 16.6466 7.5493 16.6466C7.5493 16.6466 7.38198 16.3045 7.56426 16.096C7.77085 15.8623 8.33265 15.8922 8.33265 15.8922L12.0671 15.8913C12.0671 15.8913 12.4186 15.9577 12.671 16.1353C12.8794 16.2811 12.9953 16.5597 12.9953 16.5597C12.9953 16.5597 13.6226 18.6312 14.4218 19.952C15.9829 22.5301 16.7092 22.5956 17.2393 22.3179C18.0133 21.916 17.7609 19.1752 17.7609 19.1752C17.7609 19.1752 17.7955 17.9983 17.3916 17.4739C17.0803 17.0682 16.4849 16.8523 16.225 16.8186C16.0147 16.7915 16.3662 16.4232 16.8139 16.2129C17.4122 15.9465 18.2264 15.8782 19.6304 15.8913C20.7232 15.9016 21.0382 15.967 21.4645 16.0652C22.7535 16.3624 22.4348 17.1467 22.4348 19.9006C22.4348 20.783 22.3133 22.0235 22.9788 22.4348C23.2658 22.6124 24.2492 22.8293 25.9991 19.9875C26.8301 18.6396 27.491 16.4036 27.491 16.4036C27.491 16.4036 27.6275 16.1577 27.8397 16.0362C28.0566 15.9119 28.05 15.9147 28.3473 15.9147C28.6445 15.9147 31.6256 15.8913 32.2799 15.8913C32.9333 15.8913 33.5465 15.8838 33.6522 16.2671C33.8036 16.8177 33.1698 18.7041 31.5639 20.7512C28.925 24.1108 28.6324 23.7968 30.8226 25.7392Z" fill="white"/>
</svg>
