<svg width="43" height="43" viewBox="0 0 43 43" fill="none" xmlns="http://www.w3.org/2000/svg">
<path d="M21.5001 0C9.6452 0 0.000138743 9.64509 0.000138743 21.5C0.000138743 25.2017 0.956418 28.8418 2.76989 32.0537L0.0347255 41.8128C-0.0550133 42.1335 0.0319213 42.4775 0.263747 42.7158C0.44229 42.9 0.685332 43 0.934918 43C1.0097 43 1.08542 42.9907 1.15927 42.9729L11.3446 40.4499C14.4546 42.1194 17.9573 43 21.5001 43C33.3549 43 43 33.3549 43 21.5C43 9.64509 33.3549 0 21.5001 0ZM32.3155 29.0867C31.8556 30.3599 29.6495 31.5218 28.5894 31.6779C27.6378 31.8172 26.4338 31.877 25.1121 31.462C24.311 31.2096 23.2827 30.8749 21.9656 30.3131C16.4289 27.9519 12.8132 22.4469 12.5365 22.0833C12.2607 21.7197 10.2827 19.1285 10.2827 16.4466C10.2827 13.7647 11.7083 12.4457 12.2149 11.8998C12.7216 11.3539 13.3189 11.2174 13.6872 11.2174C14.0555 11.2174 14.4229 11.2221 14.7454 11.237C15.0847 11.2538 15.5399 11.109 15.9877 12.1727C16.4476 13.2646 17.5516 15.9465 17.688 16.2203C17.8264 16.4933 17.918 16.8121 17.7348 17.1757C17.5516 17.5393 17.46 17.7665 17.1833 18.0852C16.9066 18.404 16.6037 18.7957 16.355 19.0406C16.0783 19.3126 15.7914 19.6071 16.1129 20.153C16.4345 20.6989 17.5422 22.4834 19.1837 23.9286C21.2916 25.785 23.0705 26.3609 23.622 26.6338C24.1735 26.9068 24.496 26.861 24.8176 26.4973C25.1392 26.1328 26.1973 24.9054 26.5647 24.3604C26.9321 23.8155 27.3004 23.9052 27.807 24.0875C28.3137 24.2688 31.0273 25.5869 31.5789 25.8598C32.1304 26.1328 32.4987 26.2693 32.637 26.4964C32.7754 26.7226 32.7754 27.8145 32.3155 29.0867Z" fill="white"/>
</svg>
