<svg width="25" height="25" viewBox="0 0 25 25" fill="none" xmlns="http://www.w3.org/2000/svg">
<path d="M12.5 0C5.60767 0 8.06647e-05 5.60761 8.06647e-05 12.5C8.06647e-05 14.6522 0.556057 16.7685 1.6104 18.6359L0.0201893 24.3098C-0.0319845 24.4962 0.0185589 24.6962 0.153341 24.8348C0.257145 24.9418 0.398449 25 0.543557 25C0.587035 25 0.631057 24.9946 0.673992 24.9842L6.59571 23.5174C8.40386 24.488 10.4403 25 12.5 25C19.3924 25 25 19.3924 25 12.5C25 5.60761 19.3924 0 12.5 0ZM18.7881 16.9109C18.5207 17.6511 17.2381 18.3266 16.6218 18.4174C16.0685 18.4984 15.3685 18.5332 14.6 18.2918C14.1343 18.1451 13.5365 17.9505 12.7707 17.6239C9.55168 16.2511 7.44951 13.0505 7.28864 12.8391C7.12832 12.6277 5.97832 11.1212 5.97832 9.56196C5.97832 8.00272 6.80712 7.23587 7.10169 6.91848C7.39625 6.60109 7.74353 6.52174 7.95766 6.52174C8.17179 6.52174 8.38538 6.52446 8.57288 6.53315C8.77016 6.54293 9.03483 6.4587 9.29516 7.07717C9.56255 7.71196 10.2044 9.2712 10.2837 9.43043C10.3642 9.58913 10.4174 9.77446 10.3109 9.98587C10.2044 10.1973 10.1511 10.3293 9.99027 10.5147C9.8294 10.7 9.65331 10.9277 9.50875 11.0701C9.34788 11.2283 9.18103 11.3995 9.36799 11.7168C9.55494 12.0342 10.199 13.0717 11.1533 13.912C12.3788 14.9913 13.4131 15.3261 13.7337 15.4848C14.0544 15.6435 14.2419 15.6168 14.4288 15.4054C14.6158 15.1935 15.231 14.4799 15.4446 14.163C15.6582 13.8462 15.8723 13.8984 16.1669 14.0043C16.4614 14.1098 18.0392 14.8761 18.3598 15.0348C18.6805 15.1935 18.8946 15.2728 18.975 15.4049C19.0555 15.5364 19.0555 16.1712 18.7881 16.9109Z" fill="#090127"/>
</svg>
