<svg width="21" height="21" viewBox="0 0 21 21" fill="none" xmlns="http://www.w3.org/2000/svg">
<path d="M10.5 0C4.71044 0 6.77583e-05 4.71039 6.77583e-05 10.5C6.77583e-05 12.3078 0.467088 14.0855 1.35274 15.6541L0.016959 20.4202C-0.026867 20.5768 0.0155895 20.7448 0.128807 20.8612C0.216002 20.9512 0.334697 21 0.456588 21C0.49311 21 0.530088 20.9954 0.566153 20.9868L5.5404 19.7546C7.05924 20.57 8.76982 21 10.5 21C16.2896 21 21 16.2896 21 10.5C21 4.71039 16.2896 0 10.5 0ZM15.782 14.2051C15.5574 14.8269 14.48 15.3944 13.9623 15.4706C13.4975 15.5386 12.9095 15.5678 12.264 15.3652C11.8728 15.2419 11.3706 15.0785 10.7274 14.8041C8.02341 13.6509 6.25759 10.9625 6.12246 10.7849C5.98779 10.6073 5.02179 9.3418 5.02179 8.03204C5.02179 6.72228 5.71798 6.07813 5.96542 5.81152C6.21285 5.54491 6.50457 5.47826 6.68444 5.47826C6.86431 5.47826 7.04372 5.48054 7.20122 5.48785C7.36694 5.49607 7.58926 5.4253 7.80793 5.94483C8.03254 6.47804 8.57169 7.7878 8.63834 7.92157C8.70591 8.05487 8.75065 8.21054 8.66117 8.38813C8.57169 8.56572 8.52695 8.67665 8.39182 8.83233C8.25669 8.988 8.10878 9.17928 7.98735 9.29889C7.85222 9.43174 7.71206 9.57554 7.86911 9.84215C8.02615 10.1088 8.56713 10.9803 9.36878 11.686C10.3982 12.5927 11.267 12.8739 11.5363 13.0072C11.8057 13.1405 11.9632 13.1182 12.1202 12.9406C12.2773 12.7625 12.794 12.1631 12.9735 11.897C13.1529 11.6308 13.3327 11.6746 13.5802 11.7637C13.8276 11.8522 15.1529 12.4959 15.4222 12.6292C15.6916 12.7625 15.8715 12.8292 15.939 12.9401C16.0066 13.0506 16.0066 13.5838 15.782 14.2051Z" fill="#3D3BFF"/>
</svg>
