<svg width="834" height="463" viewBox="0 0 834 463" fill="none" xmlns="http://www.w3.org/2000/svg">
<path d="M393.59 19.6378C399.225 -5.31156 434.775 -5.31148 440.41 19.6379L482.744 207.051C486.396 223.221 504.952 230.907 518.968 222.056L681.424 119.469C703.051 105.812 728.188 130.949 714.531 152.576L611.944 315.032C603.093 329.048 610.779 347.604 626.949 351.256L814.362 393.59C839.312 399.225 839.311 434.775 814.362 440.41L626.949 482.744C610.779 486.396 603.093 504.952 611.944 518.968L714.531 681.424C728.188 703.051 703.051 728.188 681.424 714.531L518.968 611.944C504.952 603.093 486.396 610.779 482.744 626.949L440.41 814.362C434.775 839.312 399.225 839.311 393.59 814.362L351.256 626.949C347.604 610.779 329.048 603.093 315.032 611.944L152.576 714.531C130.949 728.188 105.812 703.051 119.469 681.424L222.056 518.968C230.907 504.952 223.221 486.396 207.051 482.744L19.6378 440.41C-5.31156 434.775 -5.31148 399.225 19.6379 393.59L207.051 351.256C223.221 347.604 230.907 329.048 222.056 315.032L119.469 152.576C105.812 130.949 130.949 105.812 152.576 119.469L315.032 222.056C329.048 230.907 347.604 223.221 351.256 207.051L393.59 19.6378Z" fill="#0B022B"/>
</svg>
